<svg width="258" height="48" viewBox="0 0 258 48" fill="none" xmlns="http://www.w3.org/2000/svg">
<rect width="258" height="48" rx="24" fill="url(#paint0_linear_189_950)"/>
<path d="M33.7351 18.8H42.8071V30H41.0311V20.384H35.5271V30H33.7351V18.8ZM45.1038 25.696C45.1038 24.96 45.2051 24.3147 45.4078 23.76C45.6105 23.2053 45.8985 22.7467 46.2718 22.384C46.6451 22.0107 47.0931 21.7333 47.6158 21.552C48.1491 21.3707 48.7465 21.28 49.4078 21.28C50.6878 21.28 51.6798 21.6373 52.3838 22.352C53.0878 23.0667 53.4398 24.1973 53.4398 25.744C53.4398 26.5333 53.3385 27.2107 53.1358 27.776C52.9331 28.3307 52.6451 28.7893 52.2718 29.152C51.9091 29.5147 51.4718 29.7813 50.9598 29.952C50.4478 30.112 49.8825 30.192 49.2638 30.192C47.8878 30.192 46.8478 29.808 46.1438 29.04C45.4505 28.272 45.1038 27.1573 45.1038 25.696ZM46.8158 25.76C46.8158 26.72 47.0238 27.456 47.4398 27.968C47.8665 28.48 48.5065 28.736 49.3598 28.736C50.1278 28.736 50.7145 28.5067 51.1198 28.048C51.5251 27.5787 51.7278 26.816 51.7278 25.76V25.696C51.7278 24.672 51.5251 23.92 51.1198 23.44C50.7145 22.9493 50.0958 22.704 49.2638 22.704C47.6318 22.704 46.8158 23.7013 46.8158 25.696V25.76ZM55.4728 21.456H62.6728V30H60.9928V22.992H57.1688V30H55.4728V21.456ZM65.2506 21.456H66.8186L66.8986 22.896C67.1332 22.3627 67.4906 21.9627 67.9706 21.696C68.4506 21.4293 69.0906 21.296 69.8906 21.296C71.0426 21.296 71.8906 21.6267 72.4346 22.288C72.9892 22.9493 73.2666 24.0427 73.2666 25.568C73.2666 27.1893 72.9679 28.3627 72.3706 29.088C71.7839 29.8133 70.8826 30.176 69.6666 30.176C68.9199 30.176 68.3332 30.048 67.9066 29.792C67.4799 29.5253 67.1599 29.2213 66.9466 28.88V32.88H65.2506V21.456ZM66.9466 26.416C66.9466 27.1307 67.1386 27.696 67.5226 28.112C67.9066 28.5173 68.4826 28.72 69.2506 28.72C69.6772 28.72 70.0346 28.6667 70.3226 28.56C70.6212 28.4427 70.8612 28.2613 71.0426 28.016C71.2239 27.7707 71.3519 27.456 71.4266 27.072C71.5119 26.6773 71.5546 26.1973 71.5546 25.632C71.5546 24.5653 71.3626 23.8187 70.9786 23.392C70.5946 22.9547 70.0186 22.736 69.2506 22.736C68.4506 22.736 67.8639 22.9493 67.4906 23.376C67.1279 23.792 66.9466 24.336 66.9466 25.008V26.416ZM74.7819 25.696C74.7819 24.96 74.8833 24.3147 75.0859 23.76C75.2886 23.2053 75.5766 22.7467 75.9499 22.384C76.3233 22.0107 76.7713 21.7333 77.2939 21.552C77.8273 21.3707 78.4246 21.28 79.0859 21.28C80.3659 21.28 81.3579 21.6373 82.0619 22.352C82.7659 23.0667 83.1179 24.1973 83.1179 25.744C83.1179 26.5333 83.0166 27.2107 82.8139 27.776C82.6113 28.3307 82.3233 28.7893 81.9499 29.152C81.5873 29.5147 81.1499 29.7813 80.6379 29.952C80.1259 30.112 79.5606 30.192 78.9419 30.192C77.5659 30.192 76.5259 29.808 75.8219 29.04C75.1286 28.272 74.7819 27.1573 74.7819 25.696ZM76.4939 25.76C76.4939 26.72 76.7019 27.456 77.1179 27.968C77.5446 28.48 78.1846 28.736 79.0379 28.736C79.8059 28.736 80.3926 28.5067 80.7979 28.048C81.2033 27.5787 81.4059 26.816 81.4059 25.76V25.696C81.4059 24.672 81.2033 23.92 80.7979 23.44C80.3926 22.9493 79.7739 22.704 78.9419 22.704C77.3099 22.704 76.4939 23.7013 76.4939 25.696V25.76ZM92.3349 19.376C92.1536 19.472 91.8389 19.552 91.3909 19.616C90.9536 19.68 90.3083 19.7387 89.4549 19.792C88.8789 19.8347 88.3883 19.92 87.9829 20.048C87.5883 20.1653 87.2629 20.3573 87.0069 20.624C86.7616 20.88 86.5696 21.216 86.4309 21.632C86.3029 22.048 86.2176 22.5653 86.1749 23.184L86.2229 23.264C86.6069 22.72 87.0816 22.3147 87.6469 22.048C88.2123 21.7813 88.8469 21.648 89.5509 21.648C90.1269 21.648 90.6336 21.7173 91.0709 21.856C91.5189 21.984 91.8923 22.208 92.1909 22.528C92.4896 22.8373 92.7136 23.248 92.8629 23.76C93.0229 24.272 93.1029 24.9013 93.1029 25.648C93.1029 26.448 93.0069 27.136 92.8149 27.712C92.6336 28.288 92.3669 28.7573 92.0149 29.12C91.6629 29.4827 91.2309 29.7493 90.7189 29.92C90.2069 30.0907 89.6203 30.176 88.9589 30.176C88.2549 30.176 87.6363 30.08 87.1029 29.888C86.5696 29.6853 86.1216 29.3707 85.7589 28.944C85.4069 28.5173 85.1403 27.9627 84.9589 27.28C84.7776 26.5973 84.6869 25.7653 84.6869 24.784C84.6869 23.6213 84.7723 22.64 84.9429 21.84C85.1136 21.04 85.3696 20.3787 85.7109 19.856C86.0629 19.3333 86.5056 18.9387 87.0389 18.672C87.5723 18.4053 88.2016 18.224 88.9269 18.128C89.1936 18.096 89.4869 18.064 89.8069 18.032C90.1376 18 90.4576 17.968 90.7669 17.936C91.0869 17.8933 91.3856 17.8453 91.6629 17.792C91.9403 17.7387 92.1643 17.6693 92.3349 17.584V19.376ZM88.9909 28.672C89.7909 28.672 90.3829 28.4427 90.7669 27.984C91.1509 27.5253 91.3429 26.7893 91.3429 25.776C91.3429 25.264 91.2896 24.8373 91.1829 24.496C91.0869 24.1547 90.9429 23.8827 90.7509 23.68C90.5589 23.4773 90.3189 23.3333 90.0309 23.248C89.7429 23.1627 89.4069 23.12 89.0229 23.12C88.2336 23.12 87.6096 23.328 87.1509 23.744C86.6923 24.16 86.4629 24.752 86.4629 25.52C86.4629 26.6507 86.6763 27.4613 87.1029 27.952C87.5296 28.432 88.1589 28.672 88.9909 28.672ZM94.5882 25.696C94.5882 24.96 94.6895 24.3147 94.8922 23.76C95.0949 23.2053 95.3829 22.7467 95.7562 22.384C96.1295 22.0107 96.5775 21.7333 97.1002 21.552C97.6335 21.3707 98.2309 21.28 98.8922 21.28C100.172 21.28 101.164 21.6373 101.868 22.352C102.572 23.0667 102.924 24.1973 102.924 25.744C102.924 26.5333 102.823 27.2107 102.62 27.776C102.418 28.3307 102.13 28.7893 101.756 29.152C101.394 29.5147 100.956 29.7813 100.444 29.952C99.9322 30.112 99.3669 30.192 98.7482 30.192C97.3722 30.192 96.3322 29.808 95.6282 29.04C94.9349 28.272 94.5882 27.1573 94.5882 25.696ZM96.3002 25.76C96.3002 26.72 96.5082 27.456 96.9242 27.968C97.3509 28.48 97.9909 28.736 98.8442 28.736C99.6122 28.736 100.199 28.5067 100.604 28.048C101.01 27.5787 101.212 26.816 101.212 25.76V25.696C101.212 24.672 101.01 23.92 100.604 23.44C100.199 22.9493 99.5802 22.704 98.7482 22.704C97.1162 22.704 96.3002 23.7013 96.3002 25.696V25.76ZM104.957 21.44C105.341 21.4187 105.805 21.3973 106.349 21.376C106.893 21.3547 107.485 21.344 108.125 21.344C108.829 21.344 109.411 21.392 109.869 21.488C110.328 21.584 110.691 21.7227 110.957 21.904C111.224 22.0747 111.411 22.288 111.517 22.544C111.624 22.8 111.677 23.088 111.677 23.408C111.677 23.9733 111.544 24.416 111.277 24.736C111.021 25.056 110.621 25.2907 110.077 25.44C110.749 25.4933 111.251 25.6693 111.581 25.968C111.912 26.256 112.077 26.7467 112.077 27.44C112.077 27.856 112.013 28.2293 111.885 28.56C111.757 28.8907 111.544 29.1733 111.245 29.408C110.947 29.6427 110.547 29.824 110.045 29.952C109.544 30.0693 108.925 30.128 108.189 30.128C107.613 30.128 107.027 30.112 106.429 30.08C105.843 30.0587 105.352 30.0373 104.957 30.016V21.44ZM106.653 28.672C106.92 28.6933 107.181 28.7147 107.437 28.736C107.704 28.7467 107.976 28.752 108.253 28.752C109.053 28.752 109.603 28.6507 109.901 28.448C110.211 28.2453 110.365 27.8933 110.365 27.392C110.365 26.944 110.221 26.64 109.933 26.48C109.645 26.3093 109.171 26.224 108.509 26.224H106.653V28.672ZM108.429 25.008C108.92 25.008 109.304 24.9173 109.581 24.736C109.859 24.544 109.997 24.24 109.997 23.824C109.997 23.3867 109.864 23.0933 109.597 22.944C109.331 22.784 108.856 22.704 108.173 22.704C107.8 22.704 107.496 22.7093 107.261 22.72C107.027 22.72 106.824 22.7253 106.653 22.736V25.008H108.429ZM118.99 28.768C118.777 29.1413 118.446 29.472 117.998 29.76C117.55 30.0373 116.99 30.176 116.318 30.176C115.412 30.176 114.718 29.952 114.238 29.504C113.769 29.0453 113.534 28.4107 113.534 27.6C113.534 26.6613 113.806 25.9947 114.35 25.6C114.894 25.2053 115.796 25.008 117.054 25.008H118.91V24.304C118.91 23.696 118.756 23.2853 118.446 23.072C118.137 22.8587 117.625 22.752 116.91 22.752C116.654 22.752 116.398 22.7787 116.142 22.832C115.886 22.8853 115.641 22.9547 115.406 23.04C115.172 23.1253 114.953 23.2267 114.75 23.344C114.548 23.4507 114.372 23.5627 114.222 23.68V21.888C114.393 21.792 114.596 21.7067 114.83 21.632C115.065 21.5573 115.31 21.4933 115.566 21.44C115.833 21.3867 116.1 21.3493 116.366 21.328C116.644 21.296 116.905 21.28 117.15 21.28C117.758 21.28 118.281 21.3333 118.718 21.44C119.156 21.536 119.513 21.7013 119.79 21.936C120.078 22.16 120.286 22.464 120.414 22.848C120.542 23.232 120.606 23.7067 120.606 24.272V30H119.07L118.99 28.768ZM115.246 27.376C115.246 27.7813 115.364 28.1013 115.598 28.336C115.833 28.5707 116.228 28.688 116.782 28.688C117.518 28.688 118.057 28.5067 118.398 28.144C118.74 27.7813 118.91 27.3173 118.91 26.752V26.096H117.182C116.809 26.096 116.494 26.1173 116.238 26.16C115.993 26.2027 115.796 26.2773 115.646 26.384C115.497 26.48 115.39 26.6133 115.326 26.784C115.273 26.944 115.246 27.1413 115.246 27.376ZM124.756 22.992H121.988V21.456H129.188V22.992H126.436V30H124.756V22.992ZM130.651 21.456H132.347V24.176C132.592 24.1547 132.832 24.1387 133.067 24.128C133.312 24.1173 133.59 24.112 133.899 24.112C134.55 24.112 135.104 24.1653 135.563 24.272C136.022 24.368 136.4 24.528 136.699 24.752C136.998 24.976 137.216 25.2747 137.355 25.648C137.494 26.0107 137.563 26.4533 137.563 26.976C137.563 27.4987 137.494 27.9573 137.355 28.352C137.216 28.7467 136.987 29.0773 136.667 29.344C136.347 29.6 135.92 29.792 135.387 29.92C134.864 30.048 134.219 30.112 133.451 30.112C132.907 30.112 132.395 30.1013 131.915 30.08C131.435 30.0587 131.014 30.032 130.651 30V21.456ZM132.331 28.64C132.523 28.6613 132.71 28.6773 132.891 28.688C133.083 28.688 133.35 28.688 133.691 28.688C134.107 28.688 134.454 28.6613 134.731 28.608C135.008 28.544 135.227 28.448 135.387 28.32C135.558 28.1813 135.675 28.0107 135.739 27.808C135.814 27.5947 135.851 27.3333 135.851 27.024C135.851 26.736 135.814 26.4907 135.739 26.288C135.675 26.0853 135.552 25.92 135.371 25.792C135.19 25.664 134.934 25.5733 134.603 25.52C134.283 25.456 133.867 25.424 133.355 25.424C133.195 25.424 133.035 25.4347 132.875 25.456C132.715 25.4667 132.534 25.4827 132.331 25.504V28.64ZM150.938 19.376C150.757 19.472 150.442 19.552 149.994 19.616C149.557 19.68 148.911 19.7387 148.058 19.792C147.482 19.8347 146.991 19.92 146.586 20.048C146.191 20.1653 145.866 20.3573 145.61 20.624C145.365 20.88 145.173 21.216 145.034 21.632C144.906 22.048 144.821 22.5653 144.778 23.184L144.826 23.264C145.21 22.72 145.685 22.3147 146.25 22.048C146.815 21.7813 147.45 21.648 148.154 21.648C148.73 21.648 149.237 21.7173 149.674 21.856C150.122 21.984 150.495 22.208 150.794 22.528C151.093 22.8373 151.317 23.248 151.466 23.76C151.626 24.272 151.706 24.9013 151.706 25.648C151.706 26.448 151.61 27.136 151.418 27.712C151.237 28.288 150.97 28.7573 150.618 29.12C150.266 29.4827 149.834 29.7493 149.322 29.92C148.81 30.0907 148.223 30.176 147.562 30.176C146.858 30.176 146.239 30.08 145.706 29.888C145.173 29.6853 144.725 29.3707 144.362 28.944C144.01 28.5173 143.743 27.9627 143.562 27.28C143.381 26.5973 143.29 25.7653 143.29 24.784C143.29 23.6213 143.375 22.64 143.546 21.84C143.717 21.04 143.973 20.3787 144.314 19.856C144.666 19.3333 145.109 18.9387 145.642 18.672C146.175 18.4053 146.805 18.224 147.53 18.128C147.797 18.096 148.09 18.064 148.41 18.032C148.741 18 149.061 17.968 149.37 17.936C149.69 17.8933 149.989 17.8453 150.266 17.792C150.543 17.7387 150.767 17.6693 150.938 17.584V19.376ZM147.594 28.672C148.394 28.672 148.986 28.4427 149.37 27.984C149.754 27.5253 149.946 26.7893 149.946 25.776C149.946 25.264 149.893 24.8373 149.786 24.496C149.69 24.1547 149.546 23.8827 149.354 23.68C149.162 23.4773 148.922 23.3333 148.634 23.248C148.346 23.1627 148.01 23.12 147.626 23.12C146.837 23.12 146.213 23.328 145.754 23.744C145.295 24.16 145.066 24.752 145.066 25.52C145.066 26.6507 145.279 27.4613 145.706 27.952C146.133 28.432 146.762 28.672 147.594 28.672ZM154.903 26.24C154.914 27.9147 155.821 28.752 157.623 28.752C158.199 28.752 158.722 28.6613 159.191 28.48C159.671 28.288 160.071 28.064 160.391 27.808V29.424C160.178 29.584 159.821 29.7547 159.319 29.936C158.818 30.1067 158.21 30.192 157.495 30.192C156.034 30.192 154.951 29.8293 154.247 29.104C153.543 28.3787 153.191 27.2053 153.191 25.584C153.191 24.1653 153.538 23.0933 154.231 22.368C154.925 21.6427 155.922 21.28 157.223 21.28C157.927 21.28 158.519 21.376 158.999 21.568C159.479 21.76 159.863 22.0373 160.151 22.4C160.45 22.752 160.663 23.1787 160.791 23.68C160.93 24.1707 160.999 24.72 160.999 25.328V26.24H154.903ZM157.207 22.688C156.471 22.688 155.906 22.8747 155.511 23.248C155.117 23.6213 154.914 24.208 154.903 25.008H159.319C159.319 24.2187 159.154 23.6373 158.823 23.264C158.493 22.88 157.954 22.688 157.207 22.688ZM169.125 23.504C168.859 23.312 168.523 23.1467 168.117 23.008C167.723 22.8693 167.269 22.8 166.757 22.8C166.363 22.8 166.005 22.848 165.685 22.944C165.376 23.04 165.109 23.2 164.885 23.424C164.672 23.6373 164.507 23.9307 164.389 24.304C164.272 24.6667 164.213 25.12 164.213 25.664C164.213 26.208 164.272 26.672 164.389 27.056C164.507 27.4293 164.683 27.7333 164.917 27.968C165.163 28.2027 165.461 28.3733 165.813 28.48C166.165 28.5867 166.576 28.64 167.045 28.64C167.493 28.64 167.92 28.576 168.325 28.448C168.741 28.32 169.088 28.144 169.365 27.92V29.6C169.131 29.76 168.795 29.8987 168.357 30.016C167.92 30.1333 167.392 30.192 166.773 30.192C166.069 30.192 165.451 30.112 164.917 29.952C164.384 29.7813 163.936 29.5147 163.573 29.152C163.211 28.7893 162.933 28.3147 162.741 27.728C162.56 27.1413 162.469 26.4267 162.469 25.584C162.469 24.112 162.821 23.0293 163.525 22.336C164.24 21.632 165.328 21.28 166.789 21.28C167.376 21.28 167.851 21.328 168.213 21.424C168.576 21.5093 168.88 21.6107 169.125 21.728V23.504ZM171.37 21.456H178.57V30H176.89V22.992H173.066V30H171.37V21.456ZM180.187 28.224C180.315 28.2667 180.454 28.288 180.603 28.288C180.774 28.288 180.939 28.2453 181.099 28.16C181.27 28.064 181.425 27.8293 181.563 27.456C181.702 27.0827 181.819 26.5173 181.915 25.76C182.011 25.0027 182.075 23.9573 182.107 22.624L182.139 21.456H188.219V30H186.539V23.008H183.659L183.643 23.504C183.601 24.912 183.505 26.0533 183.355 26.928C183.206 27.8027 183.014 28.48 182.779 28.96C182.545 29.44 182.267 29.7653 181.947 29.936C181.638 30.1067 181.297 30.192 180.923 30.192C180.774 30.192 180.641 30.1867 180.523 30.176C180.417 30.1653 180.305 30.1387 180.187 30.096V28.224ZM195.697 28.768C195.483 29.1413 195.153 29.472 194.705 29.76C194.257 30.0373 193.697 30.176 193.025 30.176C192.118 30.176 191.425 29.952 190.945 29.504C190.475 29.0453 190.241 28.4107 190.241 27.6C190.241 26.6613 190.513 25.9947 191.057 25.6C191.601 25.2053 192.502 25.008 193.761 25.008H195.617V24.304C195.617 23.696 195.462 23.2853 195.153 23.072C194.843 22.8587 194.331 22.752 193.617 22.752C193.361 22.752 193.105 22.7787 192.849 22.832C192.593 22.8853 192.347 22.9547 192.113 23.04C191.878 23.1253 191.659 23.2267 191.457 23.344C191.254 23.4507 191.078 23.5627 190.929 23.68V21.888C191.099 21.792 191.302 21.7067 191.537 21.632C191.771 21.5573 192.017 21.4933 192.273 21.44C192.539 21.3867 192.806 21.3493 193.073 21.328C193.35 21.296 193.611 21.28 193.857 21.28C194.465 21.28 194.987 21.3333 195.425 21.44C195.862 21.536 196.219 21.7013 196.497 21.936C196.785 22.16 196.993 22.464 197.121 22.848C197.249 23.232 197.313 23.7067 197.313 24.272V30H195.777L195.697 28.768ZM191.953 27.376C191.953 27.7813 192.07 28.1013 192.305 28.336C192.539 28.5707 192.934 28.688 193.489 28.688C194.225 28.688 194.763 28.5067 195.105 28.144C195.446 27.7813 195.617 27.3173 195.617 26.752V26.096H193.889C193.515 26.096 193.201 26.1173 192.945 26.16C192.699 26.2027 192.502 26.2773 192.353 26.384C192.203 26.48 192.097 26.6133 192.033 26.784C191.979 26.944 191.953 27.1413 191.953 27.376ZM201.462 22.992H198.694V21.456H205.894V22.992H203.142V30H201.462V22.992ZM207.357 21.456H209.053V24.928H213.021V21.456H214.701V30H213.021V26.448H209.053V30H207.357V21.456ZM216.732 25.696C216.732 24.96 216.833 24.3147 217.036 23.76C217.239 23.2053 217.527 22.7467 217.9 22.384C218.273 22.0107 218.721 21.7333 219.244 21.552C219.777 21.3707 220.375 21.28 221.036 21.28C222.316 21.28 223.308 21.6373 224.012 22.352C224.716 23.0667 225.068 24.1973 225.068 25.744C225.068 26.5333 224.967 27.2107 224.764 27.776C224.561 28.3307 224.273 28.7893 223.9 29.152C223.537 29.5147 223.1 29.7813 222.588 29.952C222.076 30.112 221.511 30.192 220.892 30.192C219.516 30.192 218.476 29.808 217.772 29.04C217.079 28.272 216.732 27.1573 216.732 25.696ZM218.444 25.76C218.444 26.72 218.652 27.456 219.068 27.968C219.495 28.48 220.135 28.736 220.988 28.736C221.756 28.736 222.343 28.5067 222.748 28.048C223.153 27.5787 223.356 26.816 223.356 25.76V25.696C223.356 24.672 223.153 23.92 222.748 23.44C222.343 22.9493 221.724 22.704 220.892 22.704C219.26 22.704 218.444 23.7013 218.444 25.696V25.76Z" fill="black"/>
<defs>
<linearGradient id="paint0_linear_189_950" x1="-51.3175" y1="24" x2="263.179" y2="24" gradientUnits="userSpaceOnUse">
<stop stop-color="#6EEA59"/>
<stop offset="0.25" stop-color="#6EE27D"/>
<stop offset="0.5" stop-color="#71DAA3"/>
<stop offset="0.75" stop-color="#79C5C1"/>
<stop offset="1" stop-color="#9195E1"/>
</linearGradient>
</defs>
</svg>
