<svg width="228" height="48" viewBox="0 0 228 48" fill="none" xmlns="http://www.w3.org/2000/svg">
<path d="M34.9255 23.616H36.4775C36.8828 23.616 37.2188 23.5733 37.4855 23.488C37.7628 23.392 37.9815 23.2693 38.1415 23.12C38.3015 22.96 38.4135 22.7733 38.4775 22.56C38.5522 22.3467 38.5895 22.1173 38.5895 21.872C38.5895 21.2747 38.4082 20.8533 38.0455 20.608C37.6935 20.352 37.1175 20.224 36.3175 20.224C35.8055 20.224 35.3148 20.3093 34.8455 20.48C34.3868 20.64 33.9602 20.864 33.5655 21.152V19.216C33.9068 19.0987 34.3228 18.976 34.8135 18.848C35.3148 18.72 35.9335 18.656 36.6695 18.656C37.9922 18.656 38.9468 18.88 39.5335 19.328C40.1308 19.776 40.4295 20.4747 40.4295 21.424C40.4295 22.8107 39.7842 23.6853 38.4935 24.048C39.2935 24.144 39.9015 24.416 40.3175 24.864C40.7442 25.3013 40.9575 25.952 40.9575 26.816C40.9575 27.3493 40.8775 27.824 40.7175 28.24C40.5575 28.656 40.3015 29.008 39.9495 29.296C39.5975 29.5733 39.1442 29.7867 38.5895 29.936C38.0348 30.0747 37.3682 30.144 36.5895 30.144C35.8855 30.144 35.2455 30.08 34.6695 29.952C34.1042 29.824 33.6348 29.6853 33.2615 29.536V27.456C33.5708 27.7333 34.0188 27.9893 34.6055 28.224C35.1922 28.448 35.8748 28.56 36.6535 28.56C37.5602 28.56 38.1895 28.4 38.5415 28.08C38.8935 27.76 39.0695 27.28 39.0695 26.64C39.0695 26.0427 38.8775 25.6267 38.4935 25.392C38.1095 25.1467 37.4588 25.024 36.5415 25.024H34.9255V23.616ZM47.945 28.768C47.7317 29.1413 47.401 29.472 46.953 29.76C46.505 30.0373 45.945 30.176 45.273 30.176C44.3663 30.176 43.673 29.952 43.193 29.504C42.7237 29.0453 42.489 28.4107 42.489 27.6C42.489 26.6613 42.761 25.9947 43.305 25.6C43.849 25.2053 44.7503 25.008 46.009 25.008H47.865V24.304C47.865 23.696 47.7103 23.2853 47.401 23.072C47.0917 22.8587 46.5797 22.752 45.865 22.752C45.609 22.752 45.353 22.7787 45.097 22.832C44.841 22.8853 44.5957 22.9547 44.361 23.04C44.1263 23.1253 43.9077 23.2267 43.705 23.344C43.5023 23.4507 43.3263 23.5627 43.177 23.68V21.888C43.3477 21.792 43.5503 21.7067 43.785 21.632C44.0197 21.5573 44.265 21.4933 44.521 21.44C44.7877 21.3867 45.0543 21.3493 45.321 21.328C45.5983 21.296 45.8597 21.28 46.105 21.28C46.713 21.28 47.2357 21.3333 47.673 21.44C48.1103 21.536 48.4677 21.7013 48.745 21.936C49.033 22.16 49.241 22.464 49.369 22.848C49.497 23.232 49.561 23.7067 49.561 24.272V30H48.025L47.945 28.768ZM44.201 27.376C44.201 27.7813 44.3183 28.1013 44.553 28.336C44.7877 28.5707 45.1823 28.688 45.737 28.688C46.473 28.688 47.0117 28.5067 47.353 28.144C47.6943 27.7813 47.865 27.3173 47.865 26.752V26.096H46.137C45.7637 26.096 45.449 26.1173 45.193 26.16C44.9477 26.2027 44.7503 26.2773 44.601 26.384C44.4517 26.48 44.345 26.6133 44.281 26.784C44.2277 26.944 44.201 27.1413 44.201 27.376ZM52.0303 21.456H53.5983L53.6783 22.896C53.9129 22.3627 54.2703 21.9627 54.7503 21.696C55.2303 21.4293 55.8703 21.296 56.6703 21.296C57.8223 21.296 58.6703 21.6267 59.2143 22.288C59.7689 22.9493 60.0463 24.0427 60.0463 25.568C60.0463 27.1893 59.7476 28.3627 59.1503 29.088C58.5636 29.8133 57.6623 30.176 56.4463 30.176C55.6996 30.176 55.1129 30.048 54.6863 29.792C54.2596 29.5253 53.9396 29.2213 53.7263 28.88V32.88H52.0303V21.456ZM53.7263 26.416C53.7263 27.1307 53.9183 27.696 54.3023 28.112C54.6863 28.5173 55.2623 28.72 56.0303 28.72C56.4569 28.72 56.8143 28.6667 57.1023 28.56C57.4009 28.4427 57.6409 28.2613 57.8223 28.016C58.0036 27.7707 58.1316 27.456 58.2063 27.072C58.2916 26.6773 58.3343 26.1973 58.3343 25.632C58.3343 24.5653 58.1423 23.8187 57.7583 23.392C57.3743 22.9547 56.7983 22.736 56.0303 22.736C55.2303 22.736 54.6436 22.9493 54.2703 23.376C53.9076 23.792 53.7263 24.336 53.7263 25.008V26.416ZM63.2736 26.24C63.2843 27.9147 64.191 28.752 65.9936 28.752C66.5696 28.752 67.0923 28.6613 67.5616 28.48C68.0416 28.288 68.4416 28.064 68.7616 27.808V29.424C68.5483 29.584 68.191 29.7547 67.6896 29.936C67.1883 30.1067 66.5803 30.192 65.8656 30.192C64.4043 30.192 63.3216 29.8293 62.6176 29.104C61.9136 28.3787 61.5616 27.2053 61.5616 25.584C61.5616 24.1653 61.9083 23.0933 62.6016 22.368C63.295 21.6427 64.2923 21.28 65.5936 21.28C66.2976 21.28 66.8896 21.376 67.3696 21.568C67.8496 21.76 68.2336 22.0373 68.5216 22.4C68.8203 22.752 69.0336 23.1787 69.1616 23.68C69.3003 24.1707 69.3696 24.72 69.3696 25.328V26.24H63.2736ZM65.5776 22.688C64.8416 22.688 64.2763 22.8747 63.8816 23.248C63.487 23.6213 63.2843 24.208 63.2736 25.008H67.6896C67.6896 24.2187 67.5243 23.6373 67.1936 23.264C66.863 22.88 66.3243 22.688 65.5776 22.688ZM71.3838 21.456H77.0478V22.992H73.0798V30H71.3838V21.456ZM78.6775 21.456H80.3735V25.504C80.3735 25.952 80.3628 26.384 80.3415 26.8C80.3202 27.2053 80.2988 27.5147 80.2775 27.728L80.3415 27.76C80.5228 27.44 80.7095 27.136 80.9015 26.848C81.1042 26.56 81.3122 26.2667 81.5255 25.968L84.5975 21.456H86.1335V30H84.4535V26.512C84.4535 26.2453 84.4535 25.9733 84.4535 25.696C84.4642 25.4187 84.4695 25.1573 84.4695 24.912C84.4802 24.656 84.4908 24.4213 84.5015 24.208C84.5122 23.9947 84.5228 23.8187 84.5335 23.68L84.5015 23.664C84.3628 23.9093 84.1922 24.192 83.9895 24.512C83.7868 24.832 83.5788 25.1467 83.3655 25.456L80.2295 30H78.6775V21.456ZM94.8333 23.504C94.5666 23.312 94.2306 23.1467 93.8253 23.008C93.4306 22.8693 92.9773 22.8 92.4653 22.8C92.0706 22.8 91.7133 22.848 91.3933 22.944C91.0839 23.04 90.8173 23.2 90.5933 23.424C90.3799 23.6373 90.2146 23.9307 90.0973 24.304C89.9799 24.6667 89.9213 25.12 89.9213 25.664C89.9213 26.208 89.9799 26.672 90.0973 27.056C90.2146 27.4293 90.3906 27.7333 90.6253 27.968C90.8706 28.2027 91.1693 28.3733 91.5213 28.48C91.8733 28.5867 92.2839 28.64 92.7533 28.64C93.2013 28.64 93.6279 28.576 94.0333 28.448C94.4493 28.32 94.7959 28.144 95.0733 27.92V29.6C94.8386 29.76 94.5026 29.8987 94.0653 30.016C93.6279 30.1333 93.0999 30.192 92.4813 30.192C91.7773 30.192 91.1586 30.112 90.6253 29.952C90.0919 29.7813 89.6439 29.5147 89.2813 29.152C88.9186 28.7893 88.6413 28.3147 88.4493 27.728C88.2679 27.1413 88.1773 26.4267 88.1773 25.584C88.1773 24.112 88.5293 23.0293 89.2333 22.336C89.9479 21.632 91.0359 21.28 92.4973 21.28C93.0839 21.28 93.5586 21.328 93.9213 21.424C94.2839 21.5093 94.5879 21.6107 94.8333 21.728V23.504ZM98.9134 22.992H96.1454V21.456H103.345V22.992H100.593V30H98.9134V22.992ZM104.793 21.456H106.361L106.441 22.896C106.675 22.3627 107.033 21.9627 107.513 21.696C107.993 21.4293 108.633 21.296 109.433 21.296C110.585 21.296 111.433 21.6267 111.977 22.288C112.531 22.9493 112.809 24.0427 112.809 25.568C112.809 27.1893 112.51 28.3627 111.913 29.088C111.326 29.8133 110.425 30.176 109.209 30.176C108.462 30.176 107.875 30.048 107.449 29.792C107.022 29.5253 106.702 29.2213 106.489 28.88V32.88H104.793V21.456ZM106.489 26.416C106.489 27.1307 106.681 27.696 107.065 28.112C107.449 28.5173 108.025 28.72 108.793 28.72C109.219 28.72 109.577 28.6667 109.865 28.56C110.163 28.4427 110.403 28.2613 110.585 28.016C110.766 27.7707 110.894 27.456 110.969 27.072C111.054 26.6773 111.097 26.1973 111.097 25.632C111.097 24.5653 110.905 23.8187 110.521 23.392C110.137 22.9547 109.561 22.736 108.793 22.736C107.993 22.736 107.406 22.9493 107.033 23.376C106.67 23.792 106.489 24.336 106.489 25.008V26.416ZM114.868 21.456H116.564V25.504C116.564 25.952 116.553 26.384 116.532 26.8C116.511 27.2053 116.489 27.5147 116.468 27.728L116.532 27.76C116.713 27.44 116.9 27.136 117.092 26.848C117.295 26.56 117.503 26.2667 117.716 25.968L120.788 21.456H122.324V30H120.644V26.512C120.644 26.2453 120.644 25.9733 120.644 25.696C120.655 25.4187 120.66 25.1573 120.66 24.912C120.671 24.656 120.681 24.4213 120.692 24.208C120.703 23.9947 120.713 23.8187 120.724 23.68L120.692 23.664C120.553 23.9093 120.383 24.192 120.18 24.512C119.977 24.832 119.769 25.1467 119.556 25.456L116.42 30H114.868V21.456ZM124.896 21.456H126.464L126.544 22.896C126.779 22.3627 127.136 21.9627 127.616 21.696C128.096 21.4293 128.736 21.296 129.536 21.296C130.688 21.296 131.536 21.6267 132.08 22.288C132.635 22.9493 132.912 24.0427 132.912 25.568C132.912 27.1893 132.613 28.3627 132.016 29.088C131.429 29.8133 130.528 30.176 129.312 30.176C128.565 30.176 127.979 30.048 127.552 29.792C127.125 29.5253 126.805 29.2213 126.592 28.88V32.88H124.896V21.456ZM126.592 26.416C126.592 27.1307 126.784 27.696 127.168 28.112C127.552 28.5173 128.128 28.72 128.896 28.72C129.323 28.72 129.68 28.6667 129.968 28.56C130.267 28.4427 130.507 28.2613 130.688 28.016C130.869 27.7707 130.997 27.456 131.072 27.072C131.157 26.6773 131.2 26.1973 131.2 25.632C131.2 24.5653 131.008 23.8187 130.624 23.392C130.24 22.9547 129.664 22.736 128.896 22.736C128.096 22.736 127.509 22.9493 127.136 23.376C126.773 23.792 126.592 24.336 126.592 25.008V26.416ZM134.427 25.696C134.427 24.96 134.529 24.3147 134.731 23.76C134.934 23.2053 135.222 22.7467 135.595 22.384C135.969 22.0107 136.417 21.7333 136.939 21.552C137.473 21.3707 138.07 21.28 138.731 21.28C140.011 21.28 141.003 21.6373 141.707 22.352C142.411 23.0667 142.763 24.1973 142.763 25.744C142.763 26.5333 142.662 27.2107 142.459 27.776C142.257 28.3307 141.969 28.7893 141.595 29.152C141.233 29.5147 140.795 29.7813 140.283 29.952C139.771 30.112 139.206 30.192 138.587 30.192C137.211 30.192 136.171 29.808 135.467 29.04C134.774 28.272 134.427 27.1573 134.427 25.696ZM136.139 25.76C136.139 26.72 136.347 27.456 136.763 27.968C137.19 28.48 137.83 28.736 138.683 28.736C139.451 28.736 140.038 28.5067 140.443 28.048C140.849 27.5787 141.051 26.816 141.051 25.76V25.696C141.051 24.672 140.849 23.92 140.443 23.44C140.038 22.9493 139.419 22.704 138.587 22.704C136.955 22.704 136.139 23.7013 136.139 25.696V25.76ZM144.796 21.44C145.18 21.4187 145.644 21.3973 146.188 21.376C146.732 21.3547 147.324 21.344 147.964 21.344C148.668 21.344 149.25 21.392 149.708 21.488C150.167 21.584 150.53 21.7227 150.796 21.904C151.063 22.0747 151.25 22.288 151.356 22.544C151.463 22.8 151.516 23.088 151.516 23.408C151.516 23.9733 151.383 24.416 151.116 24.736C150.86 25.056 150.46 25.2907 149.916 25.44C150.588 25.4933 151.09 25.6693 151.42 25.968C151.751 26.256 151.916 26.7467 151.916 27.44C151.916 27.856 151.852 28.2293 151.724 28.56C151.596 28.8907 151.383 29.1733 151.084 29.408C150.786 29.6427 150.386 29.824 149.884 29.952C149.383 30.0693 148.764 30.128 148.028 30.128C147.452 30.128 146.866 30.112 146.268 30.08C145.682 30.0587 145.191 30.0373 144.796 30.016V21.44ZM146.492 28.672C146.759 28.6933 147.02 28.7147 147.276 28.736C147.543 28.7467 147.815 28.752 148.092 28.752C148.892 28.752 149.442 28.6507 149.74 28.448C150.05 28.2453 150.204 27.8933 150.204 27.392C150.204 26.944 150.06 26.64 149.772 26.48C149.484 26.3093 149.01 26.224 148.348 26.224H146.492V28.672ZM148.268 25.008C148.759 25.008 149.143 24.9173 149.42 24.736C149.698 24.544 149.836 24.24 149.836 23.824C149.836 23.3867 149.703 23.0933 149.436 22.944C149.17 22.784 148.695 22.704 148.012 22.704C147.639 22.704 147.335 22.7093 147.1 22.72C146.866 22.72 146.663 22.7253 146.492 22.736V25.008H148.268ZM158.829 28.768C158.616 29.1413 158.285 29.472 157.837 29.76C157.389 30.0373 156.829 30.176 156.157 30.176C155.251 30.176 154.557 29.952 154.077 29.504C153.608 29.0453 153.373 28.4107 153.373 27.6C153.373 26.6613 153.645 25.9947 154.189 25.6C154.733 25.2053 155.635 25.008 156.893 25.008H158.749V24.304C158.749 23.696 158.595 23.2853 158.285 23.072C157.976 22.8587 157.464 22.752 156.749 22.752C156.493 22.752 156.237 22.7787 155.981 22.832C155.725 22.8853 155.48 22.9547 155.245 23.04C155.011 23.1253 154.792 23.2267 154.589 23.344C154.387 23.4507 154.211 23.5627 154.061 23.68V21.888C154.232 21.792 154.435 21.7067 154.669 21.632C154.904 21.5573 155.149 21.4933 155.405 21.44C155.672 21.3867 155.939 21.3493 156.205 21.328C156.483 21.296 156.744 21.28 156.989 21.28C157.597 21.28 158.12 21.3333 158.557 21.44C158.995 21.536 159.352 21.7013 159.629 21.936C159.917 22.16 160.125 22.464 160.253 22.848C160.381 23.232 160.445 23.7067 160.445 24.272V30H158.909L158.829 28.768ZM155.085 27.376C155.085 27.7813 155.203 28.1013 155.437 28.336C155.672 28.5707 156.067 28.688 156.621 28.688C157.357 28.688 157.896 28.5067 158.237 28.144C158.579 27.7813 158.749 27.3173 158.749 26.752V26.096H157.021C156.648 26.096 156.333 26.1173 156.077 26.16C155.832 26.2027 155.635 26.2773 155.485 26.384C155.336 26.48 155.229 26.6133 155.165 26.784C155.112 26.944 155.085 27.1413 155.085 27.376ZM164.595 22.992H161.827V21.456H169.027V22.992H166.275V30H164.595V22.992ZM170.49 21.456H172.186V24.176C172.431 24.1547 172.671 24.1387 172.906 24.128C173.151 24.1173 173.429 24.112 173.738 24.112C174.389 24.112 174.943 24.1653 175.402 24.272C175.861 24.368 176.239 24.528 176.538 24.752C176.837 24.976 177.055 25.2747 177.194 25.648C177.333 26.0107 177.402 26.4533 177.402 26.976C177.402 27.4987 177.333 27.9573 177.194 28.352C177.055 28.7467 176.826 29.0773 176.506 29.344C176.186 29.6 175.759 29.792 175.226 29.92C174.703 30.048 174.058 30.112 173.29 30.112C172.746 30.112 172.234 30.1013 171.754 30.08C171.274 30.0587 170.853 30.032 170.49 30V21.456ZM172.17 28.64C172.362 28.6613 172.549 28.6773 172.73 28.688C172.922 28.688 173.189 28.688 173.53 28.688C173.946 28.688 174.293 28.6613 174.57 28.608C174.847 28.544 175.066 28.448 175.226 28.32C175.397 28.1813 175.514 28.0107 175.578 27.808C175.653 27.5947 175.69 27.3333 175.69 27.024C175.69 26.736 175.653 26.4907 175.578 26.288C175.514 26.0853 175.391 25.92 175.21 25.792C175.029 25.664 174.773 25.5733 174.442 25.52C174.122 25.456 173.706 25.424 173.194 25.424C173.034 25.424 172.874 25.4347 172.714 25.456C172.554 25.4667 172.373 25.4827 172.17 25.504V28.64ZM185.38 23.504C185.113 23.312 184.777 23.1467 184.372 23.008C183.977 22.8693 183.524 22.8 183.012 22.8C182.617 22.8 182.26 22.848 181.94 22.944C181.631 23.04 181.364 23.2 181.14 23.424C180.927 23.6373 180.761 23.9307 180.644 24.304C180.527 24.6667 180.468 25.12 180.468 25.664C180.468 26.208 180.527 26.672 180.644 27.056C180.761 27.4293 180.937 27.7333 181.172 27.968C181.417 28.2027 181.716 28.3733 182.068 28.48C182.42 28.5867 182.831 28.64 183.3 28.64C183.748 28.64 184.175 28.576 184.58 28.448C184.996 28.32 185.343 28.144 185.62 27.92V29.6C185.385 29.76 185.049 29.8987 184.612 30.016C184.175 30.1333 183.647 30.192 183.028 30.192C182.324 30.192 181.705 30.112 181.172 29.952C180.639 29.7813 180.191 29.5147 179.828 29.152C179.465 28.7893 179.188 28.3147 178.996 27.728C178.815 27.1413 178.724 26.4267 178.724 25.584C178.724 24.112 179.076 23.0293 179.78 22.336C180.495 21.632 181.583 21.28 183.044 21.28C183.631 21.28 184.105 21.328 184.468 21.424C184.831 21.5093 185.135 21.6107 185.38 21.728V23.504ZM189.064 26.816C188.424 26.6773 187.982 26.384 187.736 25.936C187.491 25.4773 187.368 24.9173 187.368 24.256C187.368 23.776 187.432 23.36 187.56 23.008C187.699 22.6453 187.923 22.3467 188.232 22.112C188.552 21.8667 188.974 21.6853 189.496 21.568C190.019 21.44 190.67 21.376 191.448 21.376C191.939 21.376 192.446 21.3867 192.968 21.408C193.491 21.4187 193.939 21.4453 194.312 21.488V30H192.632V27.088H190.728L188.712 30H186.808L189.064 26.816ZM192.648 22.848C192.467 22.8267 192.275 22.8107 192.072 22.8C191.87 22.7893 191.608 22.784 191.288 22.784C190.84 22.784 190.472 22.8107 190.184 22.864C189.907 22.9173 189.688 23.0027 189.528 23.12C189.368 23.2373 189.256 23.392 189.192 23.584C189.128 23.776 189.096 24.0107 189.096 24.288C189.096 24.8747 189.24 25.28 189.528 25.504C189.816 25.7173 190.296 25.824 190.968 25.824H192.648V22.848Z" fill="#4CEF8F"/>
<rect x="1" y="1" width="226" height="46" rx="23" stroke="#4CEF8F" stroke-width="2"/>
</svg>
