<svg width="113" height="48" viewBox="0 0 113 48" fill="none" xmlns="http://www.w3.org/2000/svg">
<rect width="113" height="48" rx="24" fill="url(#paint0_linear_299_371)"/>
<path d="M34.0929 18.832C34.3275 18.8213 34.5942 18.8107 34.8929 18.8C35.1915 18.7787 35.4902 18.7627 35.7889 18.752C36.0982 18.7307 36.4022 18.72 36.7009 18.72C36.9995 18.7093 37.2715 18.704 37.5169 18.704C38.3062 18.704 38.9622 18.7573 39.4849 18.864C40.0182 18.9707 40.4449 19.1413 40.7649 19.376C41.0849 19.6 41.3089 19.8933 41.4369 20.256C41.5755 20.6187 41.6449 21.0507 41.6449 21.552C41.6449 22.9067 41.0315 23.7653 39.8049 24.128C40.6262 24.2133 41.2235 24.48 41.5969 24.928C41.9702 25.376 42.1569 25.9733 42.1569 26.72C42.1569 27.3067 42.0769 27.8133 41.9169 28.24C41.7569 28.6667 41.4955 29.024 41.1329 29.312C40.7809 29.5893 40.3115 29.7973 39.7249 29.936C39.1382 30.064 38.4182 30.128 37.5649 30.128C36.9355 30.128 36.3169 30.112 35.7089 30.08C35.1115 30.048 34.5729 30.0053 34.0929 29.952V18.832ZM35.8849 28.48C36.1622 28.512 36.4662 28.5387 36.7969 28.56C37.1275 28.5707 37.4422 28.576 37.7409 28.576C38.2529 28.576 38.6742 28.544 39.0049 28.48C39.3355 28.4053 39.6022 28.2933 39.8049 28.144C40.0075 27.984 40.1462 27.7867 40.2209 27.552C40.3062 27.3173 40.3489 27.0293 40.3489 26.688C40.3489 26.0267 40.1569 25.5733 39.7729 25.328C39.3889 25.0827 38.7809 24.96 37.9489 24.96H35.8849V28.48ZM37.8049 23.648C38.5835 23.648 39.1222 23.504 39.4209 23.216C39.7195 22.928 39.8689 22.5173 39.8689 21.984C39.8689 21.632 39.8369 21.344 39.7729 21.12C39.7195 20.8853 39.6075 20.704 39.4369 20.576C39.2662 20.448 39.0315 20.3627 38.7329 20.32C38.4449 20.2667 38.0662 20.24 37.5969 20.24C37.3195 20.24 37.0315 20.2453 36.7329 20.256C36.4449 20.256 36.1622 20.2667 35.8849 20.288V23.648H37.8049ZM43.7273 25.696C43.7273 24.96 43.8286 24.3147 44.0313 23.76C44.2339 23.2053 44.5219 22.7467 44.8953 22.384C45.2686 22.0107 45.7166 21.7333 46.2393 21.552C46.7726 21.3707 47.3699 21.28 48.0313 21.28C49.3113 21.28 50.3033 21.6373 51.0073 22.352C51.7113 23.0667 52.0633 24.1973 52.0633 25.744C52.0633 26.5333 51.9619 27.2107 51.7593 27.776C51.5566 28.3307 51.2686 28.7893 50.8953 29.152C50.5326 29.5147 50.0953 29.7813 49.5833 29.952C49.0713 30.112 48.5059 30.192 47.8873 30.192C46.5113 30.192 45.4713 29.808 44.7673 29.04C44.0739 28.272 43.7273 27.1573 43.7273 25.696ZM45.4393 25.76C45.4393 26.72 45.6473 27.456 46.0633 27.968C46.4899 28.48 47.1299 28.736 47.9833 28.736C48.7513 28.736 49.3379 28.5067 49.7433 28.048C50.1486 27.5787 50.3513 26.816 50.3513 25.76V25.696C50.3513 24.672 50.1486 23.92 49.7433 23.44C49.3379 22.9493 48.7193 22.704 47.8873 22.704C46.2553 22.704 45.4393 23.7013 45.4393 25.696V25.76ZM54.0963 21.456H55.7923V25.504C55.7923 25.952 55.7816 26.384 55.7603 26.8C55.7389 27.2053 55.7176 27.5147 55.6963 27.728L55.7603 27.76C55.9416 27.44 56.1283 27.136 56.3203 26.848C56.5229 26.56 56.7309 26.2667 56.9443 25.968L60.0163 21.456H61.5523V30H59.8723V26.512C59.8723 26.2453 59.8723 25.9733 59.8723 25.696C59.8829 25.4187 59.8883 25.1573 59.8883 24.912C59.8989 24.656 59.9096 24.4213 59.9203 24.208C59.9309 23.9947 59.9416 23.8187 59.9523 23.68L59.9203 23.664C59.7816 23.9093 59.6109 24.192 59.4083 24.512C59.2056 24.832 58.9976 25.1467 58.7843 25.456L55.6483 30H54.0963V21.456ZM56.7043 17.696C56.7043 18.0907 56.7896 18.4053 56.9603 18.64C57.1309 18.864 57.4189 18.976 57.8243 18.976C58.2296 18.976 58.5229 18.864 58.7043 18.64C58.8856 18.4053 58.9763 18.0907 58.9763 17.696H60.3843C60.3843 18.112 60.3149 18.4693 60.1763 18.768C60.0483 19.0667 59.8669 19.3173 59.6323 19.52C59.4083 19.712 59.1416 19.856 58.8323 19.952C58.5229 20.048 58.1869 20.096 57.8243 20.096C57.4616 20.096 57.1256 20.048 56.8163 19.952C56.5069 19.856 56.2349 19.712 56.0003 19.52C55.7763 19.3173 55.5949 19.0667 55.4563 18.768C55.3283 18.4693 55.2643 18.112 55.2643 17.696H56.7043ZM65.804 22.992H63.036V21.456H70.236V22.992H67.484V30H65.804V22.992ZM71.6994 21.456H73.3954V25.504C73.3954 25.952 73.3847 26.384 73.3634 26.8C73.342 27.2053 73.3207 27.5147 73.2994 27.728L73.3634 27.76C73.5447 27.44 73.7314 27.136 73.9234 26.848C74.126 26.56 74.334 26.2667 74.5474 25.968L77.6194 21.456H79.1554V30H77.4754V26.512C77.4754 26.2453 77.4754 25.9733 77.4754 25.696C77.486 25.4187 77.4914 25.1573 77.4914 24.912C77.502 24.656 77.5127 24.4213 77.5234 24.208C77.534 23.9947 77.5447 23.8187 77.5554 23.68L77.5234 23.664C77.3847 23.9093 77.214 24.192 77.0114 24.512C76.8087 24.832 76.6007 25.1467 76.3874 25.456L73.2514 30H71.6994V21.456Z" fill="black"/>
<defs>
<linearGradient id="paint0_linear_299_371" x1="-22.4763" y1="24" x2="115.268" y2="24" gradientUnits="userSpaceOnUse">
<stop stop-color="#6EEA59"/>
<stop offset="0.25" stop-color="#6EE27D"/>
<stop offset="0.5" stop-color="#71DAA3"/>
<stop offset="0.75" stop-color="#79C5C1"/>
<stop offset="1" stop-color="#9195E1"/>
</linearGradient>
</defs>
</svg>
