<svg width="117" height="17" viewBox="0 0 117 17" fill="none" xmlns="http://www.w3.org/2000/svg">
<g clip-path="url(#clip0_274_349)">
<path d="M103.671 4.93557L105.896 3.29297H98.4492V13.1579H105.896V11.5152H100.574V8.99007H105.113V7.34737H100.574V4.93557H103.671Z" fill="#2A9E3E"/>
<path d="M92.8282 7.13857H90.2422V4.93557H94.3712L96.5952 3.29297H88.1172V13.1579H92.5542C95.0432 13.1579 96.4702 12.0284 96.4702 10.0587C96.4702 8.17567 95.1762 7.13857 92.8282 7.13857ZM92.4582 11.5152H90.2422V8.78067H92.4582C93.8072 8.78067 94.4362 9.23797 94.4362 10.1477C94.4352 11.0775 93.7702 11.5152 92.4582 11.5152Z" fill="#2A9E3E"/>
<path d="M111.929 3.29297H107.874V13.1579H109.999V10.3636H111.929C114.516 10.3636 116.123 9.00077 116.123 6.82337C116.123 4.64587 114.516 3.29297 111.929 3.29297ZM111.883 8.72097H109.999V4.93557H111.883C113.245 4.93557 113.994 5.60767 113.994 6.82827C113.994 8.04877 113.245 8.72097 111.883 8.72097Z" fill="#2A9E3E"/>
<path d="M84.469 10.9901C83.924 11.2912 83.289 11.4506 82.634 11.4506C80.718 11.4506 79.328 10.0809 79.328 8.19373C79.328 6.30643 80.719 4.93663 82.634 4.93663C83.359 4.93663 84.009 5.14063 84.567 5.54263L86.091 4.41753L85.991 4.32914C85.101 3.54574 83.911 3.13184 82.552 3.13184C81.077 3.13184 79.738 3.62983 78.783 4.53473C77.822 5.44443 77.292 6.72463 77.292 8.13943C77.292 9.56073 77.82 10.8599 78.778 11.7973C79.738 12.738 81.074 13.256 82.538 13.256C84.071 13.256 85.408 12.7212 86.315 11.7474C85.615 11.231 84.94 10.7325 84.94 10.7325L84.469 10.9901Z" fill="#2A9E3E"/>
<path d="M70.8339 3.1499C71.2259 3.656 71.5599 4.2088 71.8269 4.7989L64.2809 10.3688L61.1289 8.3894V6.00821L64.2809 7.9876L70.8339 3.1499Z" fill="#2A9E3E"/>
<path d="M57.913 8.22114C57.913 8.11414 57.915 8.00814 57.921 7.90224L56.01 7.80664C56.004 7.94394 56 8.08224 56 8.22114C56 10.5118 56.927 12.5856 58.426 14.0864L59.78 12.7295C58.627 11.5745 57.913 9.97994 57.913 8.22114Z" fill="url(#paint0_linear_274_349)"/>
<path d="M64.2798 1.84208C64.3868 1.84208 64.4928 1.84598 64.5988 1.85088L64.6938 -0.0637188C64.5568 -0.0703188 64.4188 -0.0742188 64.2798 -0.0742188C61.9928 -0.0742188 59.9228 0.854081 58.4238 2.35538L59.7788 3.71228C60.9318 2.55738 62.5248 1.84208 64.2798 1.84208Z" fill="url(#paint1_linear_274_349)"/>
<path d="M64.2812 14.6003C64.1742 14.6003 64.0682 14.5975 63.9622 14.5921L63.8672 16.5056C64.0042 16.5122 64.1422 16.516 64.2812 16.516C66.5682 16.516 68.6382 15.5878 70.1362 14.0865L68.7822 12.7295C67.6292 13.8845 66.0362 14.6003 64.2812 14.6003Z" fill="url(#paint2_linear_274_349)"/>
<path d="M67.8712 2.95538L69.4822 1.76638C68.0612 0.61578 66.2513 -0.0742188 64.2812 -0.0742188V1.84208C65.6122 1.84208 66.8492 2.25328 67.8712 2.95538Z" fill="url(#paint3_linear_274_349)"/>
<path d="M72.5618 8.22125C72.5618 7.71405 72.5158 7.21725 72.4288 6.73535L70.6458 8.05115C70.6478 8.10765 70.6488 8.16425 70.6488 8.22125C70.6488 10.0943 69.8388 11.7811 68.5508 12.9492L69.8358 14.3721C71.5098 12.8548 72.5618 10.6613 72.5618 8.22125Z" fill="#2A9E3E"/>
<path d="M64.2806 14.6003C62.4116 14.6003 60.7266 13.789 59.5606 12.499L58.1406 13.7862C59.6556 15.4626 61.8456 16.5161 64.2806 16.5161V14.6003Z" fill="url(#paint4_linear_274_349)"/>
<path d="M60.011 3.49311L58.725 2.07031C57.052 3.58811 56 5.78161 56 8.22111H57.913C57.913 6.34811 58.723 4.66131 60.011 3.49311Z" fill="url(#paint5_linear_274_349)"/>
</g>
<defs>
<linearGradient id="paint0_linear_274_349" x1="58.812" y1="13.8468" x2="56.716" y2="7.79684" gradientUnits="userSpaceOnUse">
<stop offset="0.1444" stop-color="#F2E913"/>
<stop offset="0.3037" stop-color="#E7E518"/>
<stop offset="0.5823" stop-color="#CADB26"/>
<stop offset="0.891" stop-color="#A3CD39"/>
</linearGradient>
<linearGradient id="paint1_linear_274_349" x1="58.9708" y1="2.69478" x2="64.3568" y2="0.64548" gradientUnits="userSpaceOnUse">
<stop offset="0.0592" stop-color="#0FA8E0"/>
<stop offset="0.5385" stop-color="#0099F9"/>
<stop offset="0.9234" stop-color="#0291EB"/>
</linearGradient>
<linearGradient id="paint2_linear_274_349" x1="63.7412" y1="15.3602" x2="69.8302" y2="13.9862" gradientUnits="userSpaceOnUse">
<stop offset="0.1226" stop-color="#A3CD39"/>
<stop offset="0.2846" stop-color="#86C339"/>
<stop offset="0.8693" stop-color="#21A038"/>
</linearGradient>
<linearGradient id="paint3_linear_274_349" x1="63.8813" y1="0.568181" x2="69.0882" y2="2.17208" gradientUnits="userSpaceOnUse">
<stop offset="0.0566" stop-color="#0291EB"/>
<stop offset="0.79" stop-color="#0C8ACB"/>
</linearGradient>
<linearGradient id="paint4_linear_274_349" x1="58.6196" y1="13.5533" x2="64.2886" y2="15.6677" gradientUnits="userSpaceOnUse">
<stop offset="0.1324" stop-color="#F2E913"/>
<stop offset="0.2977" stop-color="#EBE716"/>
<stop offset="0.5306" stop-color="#D9E01F"/>
<stop offset="0.8023" stop-color="#BBD62D"/>
<stop offset="0.9829" stop-color="#A3CD39"/>
</linearGradient>
<linearGradient id="paint5_linear_274_349" x1="56.712" y1="8.45351" x2="58.993" y2="2.52991" gradientUnits="userSpaceOnUse">
<stop offset="0.0698" stop-color="#A3CD39"/>
<stop offset="0.2599" stop-color="#81C55F"/>
<stop offset="0.9216" stop-color="#0FA8E0"/>
</linearGradient>
<clipPath id="clip0_274_349">
<rect width="117" height="17" fill="white"/>
</clipPath>
</defs>
</svg>
